<?xml version="1.0" encoding="UTF-8"?><svg id="a" xmlns="http://www.w3.org/2000/svg" viewBox="0 0 54.9547 51.9619"><defs><style>.b{fill:#054791;fill-rule:evenodd;}</style></defs><path class="b" d="m29.8247,0H3.844v27.5508C11.2008,7.92,27.6355,10.0426,38.4128,13.5103c5.4479,1.7535,10.6302,3.4205,15.3301,2.3601C49.7792,6.5668,40.5326,0,29.8247,0M3.844,35.9813v15.9806h25.9807c23.1693,0,27.7588-18.6664,23.9182-36.0915-2.0736,19.8649-17.8467,27.7398-27.7713,25.3406-3.7712-.9116-7.0926-2.6615-9.4153-4.6491-2.4421-2.09-3.8191-4.4941-3.5541-6.5721.4212-3.3058,4.8892-5.624,15.6671-4.2515,2.6501.3379,5.2668.5423,7.8497.4176.614-.0298,1.2263-.0774,1.8371-.1477-2.6702-.2126-5.2449-.5474-7.7312-.8702-15.8581-2.0617-19.7113-.6528-30.6249,10.0304v5.5017c.0124.0088,3.6346-4.4662,3.844-4.6888Z"/></svg>