<?xml version="1.0" encoding="UTF-8" standalone="no"?>
<!-- Created with Inkscape (http://www.inkscape.org/) -->

<svg
   width="184.50584mm"
   height="36.159672mm"
   viewBox="0 0 184.50584 36.159672"
   version="1.1"
   id="svg5"
   xml:space="preserve"
   xmlns="http://www.w3.org/2000/svg"
   xmlns:svg="http://www.w3.org/2000/svg"><defs
     id="defs2" /><g
     id="layer1"
     transform="translate(-12.63199,-60.229128)"><g
       id="g180"><path
         style="fill:#000000;stroke-width:0.176389"
         d="m 15.290049,90.813278 v -5.57558 l -1.27882,1.54333 -1.278819,1.54333 -0.05021,-1.78329 -0.05021,-1.78328 1.284932,-1.21735 c 5.737457,-5.43566 8.874887,-6.68272 15.611015,-6.20503 2.172254,0.15405 4.34627,0.39172 8.604473,0.9407 0.291041,0.0375 -0.264584,0.0776 -1.234723,0.0891 -0.970139,0.0115 -2.716389,-0.094 -3.880555,-0.23447 -8.551117,-1.03175 -12.849083,0.97979 -10.933429,5.11709 0.563342,1.21666 2.790317,3.2432 4.585101,4.17243 2.607698,1.35009 4.219374,1.78846 6.612911,1.79867 2.439462,0.0104 3.794585,-0.29833 6.147421,-1.40058 2.129173,-0.99746 3.498164,-1.98583 5.158301,-3.72412 2.228818,-2.33374 3.421474,-4.33598 4.478727,-7.51893 0.32777,-0.98678 0.690718,-2.31007 0.806551,-2.94067 0.319329,-1.73839 0.375581,-1.77578 0.663478,-0.44097 0.190736,0.88434 0.270552,2.386 0.281263,5.29167 0.01346,3.65154 -0.02448,4.21164 -0.379725,5.60502 -1.520751,5.96498 -4.745923,9.60364 -10.045755,11.33367 -2.758978,0.90063 -3.722998,0.96331 -14.827275,0.96407 l -10.274653,7.1e-4 z m 146.314591,1.76878 c -4.55388,-1.00266 -8.51359,-4.31971 -10.31115,-8.63765 -0.88509,-2.12607 -1.11078,-3.50843 -1.02088,-6.25278 0.0844,-2.57715 0.43299,-3.9758 1.53473,-6.15833 1.28501,-2.5456 3.8979,-5.06152 6.60859,-6.36334 2.3214,-1.11487 3.32639,-1.32007 6.4519,-1.3174 2.62665,0.002 2.79984,0.025 4.40972,0.57972 2.44348,0.84192 5.04213,2.51049 6.18584,3.97187 l 0.39295,0.5021 -2.20524,2.20524 -2.20525,2.20525 -0.86366,-0.85612 c -1.70069,-1.68584 -3.85045,-2.45875 -6.45808,-2.32188 -1.24659,0.0654 -1.70762,0.18083 -2.79966,0.7008 -1.5838,0.75413 -2.27945,1.32254 -3.277,2.67761 -2.02299,2.74804 -2.02299,6.83564 0,9.58368 0.99755,1.35507 1.6932,1.92348 3.277,2.67761 3.0682,1.46092 6.89385,0.75815 9.33758,-1.71532 l 0.9435,-0.95498 2.20881,2.20881 2.20882,2.20882 -0.40019,0.54127 c -0.5235,0.70808 -2.28023,2.12586 -3.61139,2.9146 -0.58208,0.34489 -1.8124,0.88152 -2.73403,1.19251 -1.49695,0.50512 -1.92969,0.57153 -4.05694,0.6226 -1.68095,0.0404 -2.74437,-0.0228 -3.61597,-0.21469 z m 22.1368,0.0131 c -3.79536,-0.92513 -6.52556,-3.64522 -7.52308,-7.49524 -0.39173,-1.5119 -0.38277,-4.29905 0.0187,-5.82083 0.96815,-3.66972 3.85963,-6.53388 7.50437,-7.43347 1.46565,-0.36175 4.76661,-0.27633 6.11615,0.15827 3.20576,1.03237 5.68598,3.39327 6.76777,6.44215 0.60738,1.7118 0.68863,5.04089 0.16994,6.96318 -0.47497,1.76017 -1.28066,3.14965 -2.6083,4.49815 -1.16537,1.18368 -3.15278,2.28963 -4.82122,2.68293 -1.37903,0.32506 -4.30036,0.32759 -5.62434,0.005 z m 3.84422,-5.7383 c 1.27716,-0.2946 2.08816,-0.96459 2.71921,-2.24642 0.46562,-0.9458 0.56476,-1.35531 0.56476,-2.33275 0,-1.60808 -0.79316,-3.27841 -1.92727,-4.05871 -1.65617,-1.13946 -3.9148,-0.99239 -5.33418,0.34735 -0.21881,0.20653 -0.61337,0.78874 -0.87679,1.29379 -0.40252,0.77169 -0.4798,1.14351 -0.48412,2.32938 -0.004,1.198 0.0702,1.5645 0.49362,2.42681 0.57632,1.17365 1.38473,1.86233 2.55641,2.17782 1.02078,0.27486 1.33175,0.28338 2.28836,0.0627 z m -99.761759,4.9531 c -4.936846,-1.33402 -7.617894,-5.15818 -7.621503,-10.87107 -0.0022,-3.45222 0.824788,-5.78488 2.789012,-7.86706 0.938322,-0.99467 1.45617,-1.36939 2.754535,-1.99321 0.879431,-0.42254 2.047125,-0.85765 2.594874,-0.9669 1.283979,-0.25611 3.878812,-0.26283 4.978007,-0.0129 0.830243,0.18879 2.84731,1.09344 3.189489,1.43048 0.32067,0.31587 0.449792,0.16071 0.449792,-0.5405 v -0.70555 h 3.086803 3.08681 v 10.67153 10.67152 h -2.97804 c -2.939231,0 -2.979425,-0.005 -3.084397,-0.39687 -0.0585,-0.21828 -0.107444,-0.56968 -0.108769,-0.78088 -0.0023,-0.36886 -0.042,-0.36017 -1.006018,0.22033 -1.769343,1.06545 -2.760564,1.35322 -4.905417,1.42413 -1.528385,0.0505 -2.213044,-0.01 -3.225178,-0.28305 z m 6.100544,-6.10825 c 2.954745,-1.47242 3.704661,-5.84345 1.443288,-8.4125 -1.879127,-2.1348 -5.69797,-2.13694 -7.575247,-0.004 -0.87443,0.99341 -1.241324,2.08081 -1.241324,3.67905 0,1.939 0.583888,3.26875 1.864023,4.24516 0.89093,0.67954 1.767688,0.93265 3.26072,0.94133 1.089753,0.006 1.499212,-0.0754 2.24854,-0.4488 z m 15.557275,5.72858 c -2.84321,-0.45361 -4.76995,-2.44758 -5.22212,-5.40433 l -0.11464,-0.74965 h 7.18374 c 6.11363,0 7.26929,-0.0406 7.75812,-0.27256 1.48486,-0.70461 1.31374,-2.82156 -0.27301,-3.37755 -0.38468,-0.13479 -1.88021,-0.21411 -4.157,-0.22049 -2.97538,-0.008 -3.73152,-0.0645 -4.62988,-0.34413 -4.77637,-1.48658 -7.08079,-6.87446 -4.87397,-11.39569 1.13116,-2.31747 3.5008,-4.0935 6.00445,-4.5003 0.58209,-0.0946 4.0492,-0.17242 7.7047,-0.17298 l 6.64637,-0.001 -0.15217,0.5306 c -0.48046,1.67524 -2.89168,4.51714 -4.49751,5.30081 -0.83667,0.4083 -1.09022,0.43493 -4.93889,0.51859 -2.71064,0.0589 -4.18102,0.15934 -4.43082,0.30258 -0.49142,0.28179 -1.00611,1.3863 -0.88005,1.88857 0.16984,0.67669 0.79942,1.31626 1.48244,1.50596 0.35939,0.0998 2.20668,0.18192 4.1051,0.18246 3.8741,0.001 4.67821,0.14818 6.35771,1.16284 2.71203,1.63844 4.26046,5.03995 3.72246,8.17732 -0.33094,1.92985 -0.88515,3.11307 -2.04331,4.36233 -1.24972,1.34801 -2.98678,2.28263 -4.7036,2.53075 -1.41207,0.20407 -8.72793,0.18652 -10.04812,-0.0241 z m 23.01875,0.002 c -2.88982,-0.41159 -4.85194,-2.40929 -5.31031,-5.40661 l -0.11464,-0.74965 h 7.18373 c 8.41644,0 8.27018,0.0273 8.80681,-1.64146 0.1524,-0.47393 -0.32573,-1.46148 -0.8853,-1.8285 -0.42866,-0.28116 -1.02286,-0.33486 -4.64494,-0.41977 -4.66884,-0.10946 -5.26587,-0.24086 -6.96532,-1.53297 -3.22423,-2.45142 -4.24201,-6.6157 -2.48995,-10.18772 1.13786,-2.31979 3.50607,-4.09388 6.00742,-4.5003 0.58208,-0.0946 4.06009,-0.17242 7.7289,-0.17298 l 6.67057,-0.001 -0.11709,0.39688 c -0.27217,0.92253 -1.6377,2.94852 -2.71557,4.02898 -1.77026,1.77455 -2.30034,1.92418 -6.81659,1.92418 -4.15056,0 -4.59442,0.0997 -5.08957,1.14314 -0.27417,0.57778 -0.28318,0.73295 -0.0744,1.28157 0.13066,0.34331 0.46144,0.79148 0.73505,0.99593 0.46294,0.34592 0.78742,0.37869 4.67418,0.47219 4.56922,0.10991 4.8755,0.16895 6.59368,1.27113 2.54319,1.63141 3.76911,4.11097 3.63864,7.35952 -0.0622,1.54851 -0.13208,1.84322 -0.71823,3.02922 -1.18911,2.406 -3.60402,4.19372 -6.16534,4.56409 -1.37229,0.19843 -8.4871,0.17994 -9.93176,-0.0258 z m -76.640976,-13.1233 v -13.1749 l 6.217709,0.0772 c 5.652763,0.0702 6.342726,0.11131 7.593626,0.45299 7.936862,2.16795 11.932623,11.006 8.338732,18.44408 -1.558598,3.22575 -4.78563,5.87487 -8.338732,6.8454 -1.2509,0.34168 -1.940863,0.38284 -7.593626,0.45299 l -6.217709,0.0772 z m 13.08446,6.13847 c 1.571567,-0.73638 2.659648,-1.77235 3.363817,-3.20272 0.531382,-1.07939 0.573252,-1.29382 0.573252,-2.93575 0,-1.64193 -0.04187,-1.85635 -0.573252,-2.93575 -0.703395,-1.42879 -1.7903,-2.46452 -3.363817,-3.20542 -1.166511,-0.54927 -1.206232,-0.55481 -4.000432,-0.55819 l -2.822222,-0.003 -0.04631,6.52569 c -0.02547,3.58913 -0.0045,6.63468 0.04662,6.76788 0.07498,0.19541 0.629119,0.22844 2.868536,0.17097 2.669371,-0.0685 2.820692,-0.0923 3.953809,-0.62329 z M 15.290049,69.610338 v -9.38121 H 25.32473 c 11.308613,0 11.627221,0.0273 14.804623,1.2667 3.89309,1.51861 7.35209,4.60977 9.309178,8.31922 0.440918,0.83571 0.580582,1.2639 0.453651,1.39084 -0.118101,0.1181 -0.988157,0.14959 -2.443804,0.0884 -2.416698,-0.10151 -3.204429,-0.27097 -7.615778,-1.63829 -4.263697,-1.32156 -5.662868,-1.56035 -9.196717,-1.56956 -2.423836,-0.006 -3.328468,0.0587 -4.211991,0.30282 -4.774263,1.319 -7.76903,3.91879 -10.295996,8.93806 l -0.837847,1.6642 z"
         id="path182" /></g></g></svg>
