<?xml version="1.0" encoding="UTF-8"?><svg id="a" xmlns="http://www.w3.org/2000/svg" viewBox="0 0 264.07441 51.9619"><defs><style>.b,.c{fill:#054791;}.c{fill-rule:evenodd;}</style></defs><path class="c" d="m29.8247,0H3.844v27.5508C11.2008,7.92,27.6355,10.0426,38.4128,13.5103c5.44789,1.75349,10.6302,3.4205,15.33009,2.36009C49.7792,6.5668,40.5326,0,29.8247,0M3.844,35.98129v15.98061h25.9807c23.1693,0,27.7588-18.6664,23.9182-36.09151-2.07359,19.8649-17.84669,27.73981-27.77129,25.34061-3.7712-.91161-7.09261-2.6615-9.41531-4.64911-2.4421-2.09-3.8191-4.49409-3.5541-6.5721.4212-3.3058,4.88921-5.62399,15.66711-4.2515,2.65009.33791,5.2668.5423,7.8497.4176.614-.0298,1.22629-.07741,1.8371-.14771-2.6702-.2126-5.2449-.54739-7.7312-.87019-15.8581-2.06171-19.7113-.6528-30.6249,10.0304v5.50169c.0124.0088,3.6346-4.46619,3.844-4.6888Z"/><path class="b" d="m180.42689,30.5836h-4.74548c-3.2579,0-6.21609-1.32941-8.358-3.47131-2.14182-2.14189-3.47131-5.1001-3.47131-8.35799,0-6.50601,5.32321-11.82921,11.82932-11.82921h18.79001c-1.52332,4.08749-5.1449,9.20551-9.94791,9.20551h-8.8421c-1.44281,0-2.6235,1.1806-2.6235,2.6237,0,.7166.29651,1.37169.7742,1.8494.4776.4776,1.13269.77409,1.8493.77409h8.24969c3.25751,0,6.21609,1.3295,8.35791,3.4713,2.1416,2.14191,3.47098,5.10011,3.47098,8.358,0,6.5061-5.32309,11.82921-11.82889,11.82921h-9.67209c-6.2326,0-9.97321-2.69971-10.59082-9.20551h20.26291c1.44281,0,2.62341-1.1806,2.62341-2.6237,0-.7166-.29651-1.37169-.77411-1.84929-.47791-.47771-1.13269-.7742-1.8493-.7742h-3.50421Z"/><path class="b" d="m76.75201,44.76019h-15.099V7.2012h15.099c5.16899,0,9.86479,2.1115,13.26639,5.51279,3.40161,3.40161,5.5128,8.0977,5.5128,13.26671,0,5.1693-2.11119,9.8651-5.5128,13.26669-3.4016,3.40161-8.0974,5.5128-13.26639,5.5128m-5.89351-9.2058h5.89351c2.62799,0,5.0204-1.07831,6.7578-2.8156,1.73759-1.73761,2.8159-4.1301,2.8159-6.7581s-1.07831-5.0204-2.8159-6.7578c-1.7374-1.73761-4.12981-2.8159-6.7578-2.8159h-5.89351v19.1474Z"/><path class="b" d="m146.4103,21.37779h4.6088c3.2579,0,6.21611,1.3295,8.358,3.4713,2.1418,2.14191,3.4713,5.10011,3.4713,8.358,0,6.5061-5.3232,11.82921-11.8293,11.82921h-9.6718c-6.2328,0-9.9731-2.69971-10.59109-9.20551h20.26289c1.4429,0,2.6235-1.1806,2.6235-2.6237,0-.7166-.29649-1.37169-.7742-1.84929-.4776-.47771-1.13271-.7742-1.8493-.7742h-8.24939c-3.25781,0-6.21631-1.32941-8.3582-3.47131-2.1416-2.14189-3.47101-5.1001-3.47101-8.35799,0-6.50601,5.3232-11.82921,11.82921-11.82921h18.78978c-1.52339,4.08749-5.14488,9.20551-9.94789,9.20551h-8.84189c-1.4431,0-2.6237,1.1806-2.6237,2.6237,0,.7166.29649,1.37169.7744,1.8494.47769.4776,1.13249.77409,1.8493.77409h3.64059Z"/><path class="b" d="m217.58991,14.23199c-3.24512,0-6.18231,1.3147-8.30801,3.4406-2.12601,2.12601-3.44101,5.0636-3.44101,8.30811,0,3.2448,1.315,6.1821,3.44101,8.30811,2.1257,2.12569,5.0629,3.44069,8.30801,3.44069,3.24478,0,6.1821-1.315,8.3078-3.44069.48758-.48761.93179-1.0177,1.32797-1.584l6.56543,6.56529c-.43661.5318-.89862,1.0412-1.38483,1.52699-3.7919,3.79251-9.03027,6.13821-14.81638,6.13821s-11.02451-2.3457-14.81671-6.13821c-3.79239-3.79189-6.13779-9.03029-6.13779-14.81639,0-5.7858,2.3454-11.02451,6.13779-14.8167,3.79221-3.7919,9.0307-6.1378,14.81671-6.1378s11.02448,2.3459,14.81638,6.1378c.41901.4187.8204.85579,1.20251,1.30849l-6.5506,6.55061c-.35229-.47911-.741-.9306-1.16049-1.35051-2.1257-2.1259-5.06302-3.4406-8.3078-3.4406"/><path class="c" d="m112.9555,22.2625c-4.43109,0-7.2935,3.0549-7.2935,7.4662,0,4.3999,2.8562,7.52339,7.2935,7.52339,2.43071,0,4.5584-.94649,5.90601-3.01289.8597-1.3187,1.27269-2.9149,1.27269-4.4819s-.41299-3.16319-1.27269-4.4818c-1.34761-2.0665-3.4753-3.013-5.90601-3.013m7.45821-5.5979l.12819-2.1792h8.86421v30.54359h-8.7242l-.19281-2.31369c-2.21269,2.0381-5.498,3.14789-8.3273,3.17619-3.6366.036-7.2581-.875-10.1557-3.1456-4.0365-3.1629-5.5584-8.04131-5.5584-13.0172,0-4.8609,1.5641-9.51511,5.4615-12.6165,2.9565-2.353,6.6844-3.3344,10.4193-3.3165,2.83771.01329,5.8992.96609,8.08521,2.8689Z"/><path class="c" d="m248.7158,24.7641c-3.91129,0-6.15259,3.1246-6.15259,6.8125,0,3.74989,2.19431,6.7572,6.15259,6.7572,3.95801,0,6.1517-3.00781,6.1517-6.7572,0-3.5215-2.43039-6.8125-6.1517-6.8125m-.0553-8.54651c8.88739,0,15.41391,6.49991,15.41391,15.35901,0,8.9606-6.3476,15.3587-15.35861,15.3587-9.0213,0-15.30429-6.40491-15.30429-15.3587,0-8.8387,6.33319-15.35901,15.24899-15.35901Z"/></svg>